<svg xmlns="http://www.w3.org/2000/svg" viewBox="0 0 64 64">
  <rect width="64" height="64" rx="12" fill="#f1eee8"/>
  <g fill="none" stroke="#4a6252" stroke-linecap="round" stroke-width="3.2">
    <path d="M32 7a25 25 0 0 1 12.5 3.35"/>
    <path d="M32 7a25 25 0 0 1 12.5 3.35" transform="rotate(60 32 32)"/>
    <path d="M32 7a25 25 0 0 1 12.5 3.35" transform="rotate(120 32 32)"/>
    <path d="M32 7a25 25 0 0 1 12.5 3.35" transform="rotate(180 32 32)"/>
    <path d="M32 7a25 25 0 0 1 12.5 3.35" transform="rotate(240 32 32)"/>
    <path d="M32 7a25 25 0 0 1 12.5 3.35" transform="rotate(300 32 32)"/>
  </g>
</svg>
